<svg width="20" height="20" viewBox="0 0 20 20" fill="none" xmlns="http://www.w3.org/2000/svg">
<g id="Logo" clip-path="url(#clip0_985_4398)">
<path id="Vector" d="M10.0241 17.5471L1.72314 13.37L5.52086 7.57771L8.88205 2.45032H10.0231H11.1642L14.5259 7.57726L18.3236 13.3695L10.0241 17.5467V17.5471ZM10.1894 5.10374C10.1894 5.25534 10.2752 5.3937 10.4108 5.46082L13.519 7.00374C13.5492 7.01881 13.5802 6.98411 13.5615 6.9558L10.9131 2.91607H10.1894V5.10374ZM17.3556 13.3362L17.6483 13.1891L14.6533 8.62109C14.635 8.5937 14.5921 8.60648 14.5921 8.63936V11.7636C14.5921 11.8868 14.662 11.9992 14.772 12.054L17.3556 13.3362ZM5.46196 11.89L2.78935 13.2165C2.66652 13.2773 2.66607 13.4521 2.78844 13.5138L2.93684 13.5887C3.07703 13.659 3.24232 13.6594 3.38251 13.59L5.67748 12.4508L10.0304 14.6115L14.4222 12.4311C14.6021 12.3416 14.6021 12.085 14.4222 11.9955L14.241 11.9056C14.1957 11.8832 14.167 11.8371 14.167 11.7864V7.80602L10.2624 5.86767C10.2172 5.84529 10.1884 5.79918 10.1884 5.74849V5.59278C10.1884 5.47269 10.062 5.39415 9.9542 5.44758L5.82086 7.49963C5.60031 7.60922 5.46104 7.83388 5.46104 8.08V11.8887L5.46196 11.89ZM5.95283 7.98593V11.6398L9.75739 9.75123V6.09735L5.95283 7.98593ZM10.0231 14.0152L13.7784 12.1512L10.0231 10.2873L6.26835 12.1512L10.0231 14.0152Z" fill="#787A7E"/>
</g>
<defs>
<clipPath id="clip0_985_4398">
<rect width="20" height="20" fill="white"/>
</clipPath>
</defs>
</svg>
