<svg width="106" height="30" viewBox="0 0 106 30" fill="none" xmlns="http://www.w3.org/2000/svg">
<path d="M24.6032 18.3752L16.8138 14.5085L16.5036 14.7007L16.2675 14.4722L8.40399 18.3752L8.09375 18.8761L8.28292 19.3165L15.8059 23.05H16.5036H17.2013L24.7228 19.3165L24.9135 18.8761L24.6032 18.3752Z" fill="#95001A"/>
<path d="M8.09149 18.8762L16.5013 23.0501V23.3967L11.0517 26.1026H10.3525L8.09149 24.9645L7.78125 24.5015V19.3756L8.09149 18.8762Z" fill="#40004D"/>
<path d="M24.9146 18.8762L16.5078 23.0501V23.3967L21.9575 26.1026H22.6567L24.9177 24.9645L25.2279 24.5015V19.3756L24.9146 18.8762Z" fill="#520033"/>
<path d="M24.9157 10.5754L24.6055 10.7692V18.3754L24.9127 18.8763L25.226 19.3757L30.3094 21.8985H31.0071L32.0089 21.3946L24.9157 10.5754Z" fill="#FFA80A"/>
<path d="M8.09321 10.5754L8.40346 10.7692V18.3754L8.09321 18.8763L7.78297 19.3757L2.69953 21.8985H2.00186L1 21.3946L8.09321 10.5754Z" fill="#FF3417"/>
<path d="M8.09526 24.9645L2.00391 21.8984L8.09526 18.8762V24.9645Z" fill="#6D0044"/>
<path d="M16.5043 29.1961L22.6517 26.1028L16.5043 23.0503L10.3555 26.1028L16.5043 29.1961Z" fill="#6D0074"/>
<path d="M24.9171 24.9645L31.0084 21.8984L24.9141 18.8762L24.9171 24.9645Z" fill="#6D0044"/>
<path d="M16.5051 1H14.3728L8.09375 10.5752L8.40399 10.7689L16.5036 6.74782V6.40125L16.8138 6.18484L16.8154 1.2709L16.5051 1Z" fill="#FFA80A"/>
<path d="M16.5036 6.40063L8.09375 10.5745V18.8754L16.5036 14.7L16.8138 14.5078V6.90005L16.5036 6.40063Z" fill="#D7001F"/>
<path d="M16.5054 1H18.6378L24.9168 10.5752L24.6065 10.7689L16.8141 6.90067L16.5039 6.40125L16.5054 1Z" fill="#FFE50A"/>
<path d="M24.9138 18.8754L16.5039 14.7V6.40063L24.9138 10.5745V18.8754Z" fill="#EF8109"/>
<path d="M101.343 21.0206C100.137 23.357 97.4153 25.0001 93.1534 25.0001C89.0969 25.0001 86.8633 23.6394 86.8633 20.8152V20.7896C86.8633 19.0694 87.5822 17.7857 89.1996 17.0412C89.6874 16.8101 90.2266 16.6304 90.8171 16.4507C92.0237 16.1426 93.7696 15.9372 96.9275 15.7575C98.0314 15.6804 98.8787 15.6291 99.4692 15.5264C100.676 15.3467 101.087 15.0129 101.087 14.3711V14.3454C101.087 14.0116 100.984 13.7036 100.702 13.3955C100.214 12.805 99.0584 12.3942 96.9275 12.3942C95.6438 12.3942 94.6682 12.4712 93.9493 12.6766C92.4602 13.0104 91.844 13.7292 91.7157 14.9102H87.2227C87.7105 10.9821 90.8684 9.26196 96.5424 9.26196C98.4679 9.26196 100.034 9.44168 101.343 9.77544C103.936 10.4943 105.271 12.1374 105.271 15.3467V24.5123H101.728L101.343 21.0206ZM94.4628 21.9192C95.7721 21.9192 96.9018 21.6882 97.9031 21.2517C99.9313 20.3788 101.138 18.941 101.138 17.452V17.3493C100.753 17.8627 99.7259 18.2222 97.3126 18.3505C94.4884 18.4789 93.2047 18.6843 92.4089 19.0694C91.7927 19.3775 91.4846 19.814 91.4846 20.4045V20.4301C91.4846 21.4057 92.3062 21.9192 94.4628 21.9192Z" fill="white"/>
<path d="M74.1196 24.5122L66.1094 9.77539H70.9361L76.3019 20.0963L81.8218 9.77539H86.6999L78.2532 24.5122H74.1196Z" fill="white"/>
<path d="M61.2809 21.0206C60.0742 23.357 57.3528 25.0001 53.0909 25.0001C49.0344 25.0001 46.8008 23.6394 46.8008 20.8152V20.7896C46.8008 19.0694 47.5197 17.7857 49.1371 17.0412C49.6249 16.8101 50.1641 16.6304 50.7546 16.4507C51.9612 16.1426 53.7071 15.9372 56.865 15.7575C57.9689 15.6804 58.8162 15.6291 59.4067 15.5264C60.6134 15.3467 61.0241 15.0129 61.0241 14.3711V14.3454C61.0241 14.0116 60.9215 13.7036 60.639 13.3955C60.1512 12.805 58.9959 12.3942 56.865 12.3942C55.5813 12.3942 54.6057 12.4712 53.8868 12.6766C52.3977 13.0104 51.7815 13.7292 51.6532 14.9102H47.1602C47.648 10.9821 50.8059 9.26196 56.4799 9.26196C58.4054 9.26196 59.9715 9.44168 61.2809 9.77544C63.874 10.4943 65.209 12.1374 65.209 15.3467V24.5123H61.666L61.2809 21.0206ZM54.4003 21.9192C55.7096 21.9192 56.8393 21.6882 57.8406 21.2517C59.8688 20.3788 61.0755 18.941 61.0755 17.452V17.3493C60.6904 17.8627 59.6634 18.2222 57.2501 18.3505C54.4259 18.4789 53.1422 18.6843 52.3464 19.0694C51.7302 19.3775 51.4221 19.814 51.4221 20.4045V20.4301C51.4221 21.4057 52.2437 21.9192 54.4003 21.9192Z" fill="white"/>
<path d="M40 24.9216V5H44.3902V24.9216H40Z" fill="white"/>
</svg>