<svg width="48" height="48" viewBox="0 0 48 48" fill="none" xmlns="http://www.w3.org/2000/svg">
	<g fill="white">
		<path
			d="M0 16h4v4H0zM4 12h4v4H4zM44 28h4v4h-4zM0 20h4v4H0zM20 44h4v4h-4zM8 40h4v4H8zM12 40h4v4h-4zM32 40h4v4h-4zM24 44h4v4h-4zM4 32h4v4H4zM4 36h4v4H4zM0 24h4v4H0zM28 44h4v4h-4zM16 44h4v4h-4zM0 28h4v4H0zM28 0h4v4h-4zM44 16h4v4h-4zM20 0h4v4h-4zM16 0h4v4h-4zM36 4h4v4h-4zM24 0h4v4h-4z" />
		<path
			d="M44 16h4v4h-4zM40 32h4v4h-4zM40 12h4v4h-4zM40 8h4v4h-4zM32 4h4v4h-4zM4 8h4v4H4zM44 24h4v4h-4zM36 40h4v4h-4zM12 4h4v4h-4zM8 4h4v4H8zM44 20h4v4h-4zM40 36h4v4h-4z" />
	</g>
</svg>